<mxfile host="app.diagrams.net" modified="2022-02-02T12:22:37.549Z" agent="5.0 (Macintosh; Intel Mac OS X 10_15_7) AppleWebKit/605.1.15 (KHTML, like Gecko) Version/15.3 Safari/605.1.15" etag="ZNb1Wqq8hNR0bMJ9cZcf" version="16.5.2" type="github">
  <diagram id="y3zcfdVoy1NTXCls2_pI" name="Page-1">
    <mxGraphModel dx="770" dy="755" grid="1" gridSize="10" guides="1" tooltips="1" connect="1" arrows="1" fold="1" page="1" pageScale="1" pageWidth="827" pageHeight="1169" math="0" shadow="0">
      <root>
        <mxCell id="0" />
        <mxCell id="1" parent="0" />
        <mxCell id="IQbN13EOizpymx544oUl-24" value="" style="rounded=0;whiteSpace=wrap;html=1;fontSize=15;" vertex="1" parent="1">
          <mxGeometry x="10" y="150" width="740" height="410" as="geometry" />
        </mxCell>
        <mxCell id="IQbN13EOizpymx544oUl-4" value="" style="edgeStyle=orthogonalEdgeStyle;rounded=0;orthogonalLoop=1;jettySize=auto;html=1;fontSize=15;fillColor=#fad9d5;strokeColor=#ae4132;" edge="1" parent="1" source="IQbN13EOizpymx544oUl-2" target="IQbN13EOizpymx544oUl-3">
          <mxGeometry relative="1" as="geometry" />
        </mxCell>
        <mxCell id="IQbN13EOizpymx544oUl-2" value="Swift Code" style="rounded=1;whiteSpace=wrap;html=1;fontSize=15;fillColor=#fad9d5;strokeColor=#ae4132;" vertex="1" parent="1">
          <mxGeometry x="80" y="200" width="120" height="60" as="geometry" />
        </mxCell>
        <mxCell id="IQbN13EOizpymx544oUl-7" style="edgeStyle=orthogonalEdgeStyle;rounded=0;orthogonalLoop=1;jettySize=auto;html=1;exitX=1;exitY=0.5;exitDx=0;exitDy=0;entryX=0;entryY=0.5;entryDx=0;entryDy=0;fontSize=15;fillColor=#fad9d5;strokeColor=#ae4132;" edge="1" parent="1" source="IQbN13EOizpymx544oUl-3" target="IQbN13EOizpymx544oUl-6">
          <mxGeometry relative="1" as="geometry" />
        </mxCell>
        <mxCell id="IQbN13EOizpymx544oUl-3" value="Parse" style="whiteSpace=wrap;html=1;fontSize=15;rounded=1;fillColor=#fad9d5;strokeColor=#ae4132;" vertex="1" parent="1">
          <mxGeometry x="330" y="200" width="120" height="60" as="geometry" />
        </mxCell>
        <mxCell id="IQbN13EOizpymx544oUl-5" value="-dump-parse" style="text;html=1;align=center;verticalAlign=middle;resizable=0;points=[];autosize=1;fontSize=15;" vertex="1" parent="1">
          <mxGeometry x="210" y="200" width="100" height="20" as="geometry" />
        </mxCell>
        <mxCell id="IQbN13EOizpymx544oUl-10" style="edgeStyle=orthogonalEdgeStyle;rounded=0;orthogonalLoop=1;jettySize=auto;html=1;exitX=0.5;exitY=1;exitDx=0;exitDy=0;entryX=0.5;entryY=0;entryDx=0;entryDy=0;fontSize=15;fillColor=#fad9d5;strokeColor=#ae4132;" edge="1" parent="1" source="IQbN13EOizpymx544oUl-6" target="IQbN13EOizpymx544oUl-9">
          <mxGeometry relative="1" as="geometry" />
        </mxCell>
        <mxCell id="IQbN13EOizpymx544oUl-6" value="Sema" style="whiteSpace=wrap;html=1;fontSize=15;rounded=1;fillColor=#fad9d5;strokeColor=#ae4132;" vertex="1" parent="1">
          <mxGeometry x="570" y="200" width="120" height="60" as="geometry" />
        </mxCell>
        <mxCell id="IQbN13EOizpymx544oUl-8" value="-dump-ast" style="text;html=1;align=center;verticalAlign=middle;resizable=0;points=[];autosize=1;fontSize=15;" vertex="1" parent="1">
          <mxGeometry x="470" y="200" width="80" height="20" as="geometry" />
        </mxCell>
        <mxCell id="IQbN13EOizpymx544oUl-12" style="edgeStyle=orthogonalEdgeStyle;rounded=0;orthogonalLoop=1;jettySize=auto;html=1;exitX=0;exitY=0.5;exitDx=0;exitDy=0;entryX=1;entryY=0.5;entryDx=0;entryDy=0;fontSize=15;fillColor=#fad9d5;strokeColor=#ae4132;" edge="1" parent="1" source="IQbN13EOizpymx544oUl-9" target="IQbN13EOizpymx544oUl-11">
          <mxGeometry relative="1" as="geometry" />
        </mxCell>
        <mxCell id="IQbN13EOizpymx544oUl-9" value="SILGen" style="whiteSpace=wrap;html=1;fontSize=15;rounded=1;fillColor=#fad9d5;strokeColor=#ae4132;" vertex="1" parent="1">
          <mxGeometry x="570" y="320" width="120" height="60" as="geometry" />
        </mxCell>
        <mxCell id="IQbN13EOizpymx544oUl-15" style="edgeStyle=orthogonalEdgeStyle;rounded=0;orthogonalLoop=1;jettySize=auto;html=1;exitX=0;exitY=0.5;exitDx=0;exitDy=0;entryX=1;entryY=0.5;entryDx=0;entryDy=0;fontSize=15;fillColor=#fad9d5;strokeColor=#ae4132;" edge="1" parent="1" source="IQbN13EOizpymx544oUl-11" target="IQbN13EOizpymx544oUl-14">
          <mxGeometry relative="1" as="geometry" />
        </mxCell>
        <mxCell id="IQbN13EOizpymx544oUl-11" value="Raw SIL" style="whiteSpace=wrap;html=1;fontSize=15;rounded=1;fillColor=#fad9d5;strokeColor=#ae4132;" vertex="1" parent="1">
          <mxGeometry x="330" y="320" width="120" height="60" as="geometry" />
        </mxCell>
        <mxCell id="IQbN13EOizpymx544oUl-13" value="-emit-silgen" style="text;html=1;align=center;verticalAlign=middle;resizable=0;points=[];autosize=1;fontSize=15;" vertex="1" parent="1">
          <mxGeometry x="465" y="320" width="90" height="20" as="geometry" />
        </mxCell>
        <mxCell id="IQbN13EOizpymx544oUl-18" style="edgeStyle=orthogonalEdgeStyle;rounded=0;orthogonalLoop=1;jettySize=auto;html=1;exitX=0.5;exitY=1;exitDx=0;exitDy=0;entryX=0.5;entryY=0;entryDx=0;entryDy=0;fontSize=15;fillColor=#fad9d5;strokeColor=#ae4132;" edge="1" parent="1" source="IQbN13EOizpymx544oUl-14" target="IQbN13EOizpymx544oUl-17">
          <mxGeometry relative="1" as="geometry" />
        </mxCell>
        <mxCell id="IQbN13EOizpymx544oUl-14" value="SILOpt&lt;br&gt;Canonical SIL" style="whiteSpace=wrap;html=1;fontSize=15;rounded=1;fillColor=#fad9d5;strokeColor=#ae4132;" vertex="1" parent="1">
          <mxGeometry x="80" y="320" width="120" height="60" as="geometry" />
        </mxCell>
        <mxCell id="IQbN13EOizpymx544oUl-16" value="-emit-sil" style="text;html=1;align=center;verticalAlign=middle;resizable=0;points=[];autosize=1;fontSize=15;" vertex="1" parent="1">
          <mxGeometry x="225" y="320" width="70" height="20" as="geometry" />
        </mxCell>
        <mxCell id="IQbN13EOizpymx544oUl-20" style="edgeStyle=orthogonalEdgeStyle;rounded=0;orthogonalLoop=1;jettySize=auto;html=1;exitX=1;exitY=0.5;exitDx=0;exitDy=0;entryX=0;entryY=0.5;entryDx=0;entryDy=0;fontSize=15;fillColor=#fad9d5;strokeColor=#ae4132;" edge="1" parent="1" source="IQbN13EOizpymx544oUl-17" target="IQbN13EOizpymx544oUl-19">
          <mxGeometry relative="1" as="geometry" />
        </mxCell>
        <mxCell id="IQbN13EOizpymx544oUl-17" value="IRGen" style="whiteSpace=wrap;html=1;fontSize=15;rounded=1;fillColor=#fad9d5;strokeColor=#ae4132;" vertex="1" parent="1">
          <mxGeometry x="80" y="440" width="120" height="60" as="geometry" />
        </mxCell>
        <mxCell id="IQbN13EOizpymx544oUl-23" style="edgeStyle=orthogonalEdgeStyle;rounded=0;orthogonalLoop=1;jettySize=auto;html=1;exitX=1;exitY=0.5;exitDx=0;exitDy=0;entryX=0;entryY=0.5;entryDx=0;entryDy=0;fontSize=15;fillColor=#fad9d5;strokeColor=#ae4132;" edge="1" parent="1" source="IQbN13EOizpymx544oUl-19" target="IQbN13EOizpymx544oUl-22">
          <mxGeometry relative="1" as="geometry" />
        </mxCell>
        <mxCell id="IQbN13EOizpymx544oUl-19" value="LLVM IR" style="whiteSpace=wrap;html=1;fontSize=15;rounded=1;fillColor=#fad9d5;strokeColor=#ae4132;" vertex="1" parent="1">
          <mxGeometry x="330" y="440" width="120" height="60" as="geometry" />
        </mxCell>
        <mxCell id="IQbN13EOizpymx544oUl-21" value="-emit-ir" style="text;html=1;align=center;verticalAlign=middle;resizable=0;points=[];autosize=1;fontSize=15;" vertex="1" parent="1">
          <mxGeometry x="230" y="440" width="60" height="20" as="geometry" />
        </mxCell>
        <mxCell id="IQbN13EOizpymx544oUl-22" value="Machine Code" style="whiteSpace=wrap;html=1;fontSize=15;rounded=1;fillColor=#fad9d5;strokeColor=#ae4132;" vertex="1" parent="1">
          <mxGeometry x="570" y="440" width="120" height="60" as="geometry" />
        </mxCell>
      </root>
    </mxGraphModel>
  </diagram>
</mxfile>
